<mxfile host="app.diagrams.net" agent="Mozilla/5.0 (Macintosh; Intel Mac OS X 10_15_7) AppleWebKit/605.1.15 (KHTML, like Gecko) Version/18.1 Safari/605.1.15" version="26.0.8">
  <diagram name="Page-1" id="z1FdOn9hZBibv0uWVt5w">
    <mxGraphModel dx="838" dy="593" grid="1" gridSize="10" guides="1" tooltips="1" connect="1" arrows="1" fold="1" page="1" pageScale="1" pageWidth="850" pageHeight="1100" math="0" shadow="0">
      <root>
        <mxCell id="0" />
        <mxCell id="1" parent="0" />
        <mxCell id="T2doS31-qzHtL92whTEw-6" style="edgeStyle=orthogonalEdgeStyle;rounded=0;orthogonalLoop=1;jettySize=auto;html=1;exitX=0.5;exitY=1;exitDx=0;exitDy=0;entryX=0.5;entryY=0;entryDx=0;entryDy=0;" edge="1" parent="1" source="T2doS31-qzHtL92whTEw-1" target="T2doS31-qzHtL92whTEw-2">
          <mxGeometry relative="1" as="geometry" />
        </mxCell>
        <mxCell id="T2doS31-qzHtL92whTEw-10" style="edgeStyle=orthogonalEdgeStyle;rounded=0;orthogonalLoop=1;jettySize=auto;html=1;exitX=0.5;exitY=0;exitDx=0;exitDy=0;entryX=0.5;entryY=1;entryDx=0;entryDy=0;" edge="1" parent="1" source="T2doS31-qzHtL92whTEw-1" target="T2doS31-qzHtL92whTEw-3">
          <mxGeometry relative="1" as="geometry" />
        </mxCell>
        <mxCell id="T2doS31-qzHtL92whTEw-19" style="edgeStyle=orthogonalEdgeStyle;rounded=0;orthogonalLoop=1;jettySize=auto;html=1;exitX=0;exitY=0.5;exitDx=0;exitDy=0;entryX=1;entryY=0.5;entryDx=0;entryDy=0;" edge="1" parent="1" source="T2doS31-qzHtL92whTEw-1" target="T2doS31-qzHtL92whTEw-17">
          <mxGeometry relative="1" as="geometry" />
        </mxCell>
        <mxCell id="T2doS31-qzHtL92whTEw-20" style="edgeStyle=orthogonalEdgeStyle;rounded=0;orthogonalLoop=1;jettySize=auto;html=1;exitX=1;exitY=0.5;exitDx=0;exitDy=0;" edge="1" parent="1" source="T2doS31-qzHtL92whTEw-1" target="T2doS31-qzHtL92whTEw-18">
          <mxGeometry relative="1" as="geometry" />
        </mxCell>
        <mxCell id="T2doS31-qzHtL92whTEw-1" value="API Gateway" style="rounded=1;whiteSpace=wrap;html=1;" vertex="1" parent="1">
          <mxGeometry x="240" y="200" width="120" height="80" as="geometry" />
        </mxCell>
        <mxCell id="T2doS31-qzHtL92whTEw-9" style="edgeStyle=orthogonalEdgeStyle;rounded=0;orthogonalLoop=1;jettySize=auto;html=1;exitX=0.5;exitY=0;exitDx=0;exitDy=0;entryX=0.5;entryY=1;entryDx=0;entryDy=0;" edge="1" parent="1" source="T2doS31-qzHtL92whTEw-2" target="T2doS31-qzHtL92whTEw-1">
          <mxGeometry relative="1" as="geometry" />
        </mxCell>
        <mxCell id="T2doS31-qzHtL92whTEw-2" value="Cache (counter)" style="rounded=1;whiteSpace=wrap;html=1;" vertex="1" parent="1">
          <mxGeometry x="240" y="360" width="120" height="80" as="geometry" />
        </mxCell>
        <mxCell id="T2doS31-qzHtL92whTEw-14" style="edgeStyle=orthogonalEdgeStyle;rounded=0;orthogonalLoop=1;jettySize=auto;html=1;exitX=0.5;exitY=1;exitDx=0;exitDy=0;entryX=0.5;entryY=0;entryDx=0;entryDy=0;" edge="1" parent="1" source="T2doS31-qzHtL92whTEw-3" target="T2doS31-qzHtL92whTEw-1">
          <mxGeometry relative="1" as="geometry" />
        </mxCell>
        <mxCell id="T2doS31-qzHtL92whTEw-3" value="Cache (policy)" style="rounded=1;whiteSpace=wrap;html=1;" vertex="1" parent="1">
          <mxGeometry x="240" y="40" width="120" height="80" as="geometry" />
        </mxCell>
        <mxCell id="T2doS31-qzHtL92whTEw-11" style="edgeStyle=orthogonalEdgeStyle;rounded=0;orthogonalLoop=1;jettySize=auto;html=1;exitX=1;exitY=0.5;exitDx=0;exitDy=0;entryX=0;entryY=0.5;entryDx=0;entryDy=0;" edge="1" parent="1" source="T2doS31-qzHtL92whTEw-4" target="T2doS31-qzHtL92whTEw-5">
          <mxGeometry relative="1" as="geometry" />
        </mxCell>
        <mxCell id="T2doS31-qzHtL92whTEw-16" style="edgeStyle=orthogonalEdgeStyle;rounded=0;orthogonalLoop=1;jettySize=auto;html=1;exitX=0;exitY=0.5;exitDx=0;exitDy=0;entryX=1;entryY=0.5;entryDx=0;entryDy=0;" edge="1" parent="1" source="T2doS31-qzHtL92whTEw-4" target="T2doS31-qzHtL92whTEw-3">
          <mxGeometry relative="1" as="geometry" />
        </mxCell>
        <mxCell id="T2doS31-qzHtL92whTEw-4" value="Worker" style="rounded=1;whiteSpace=wrap;html=1;" vertex="1" parent="1">
          <mxGeometry x="440" y="40" width="120" height="80" as="geometry" />
        </mxCell>
        <mxCell id="T2doS31-qzHtL92whTEw-5" value="DB (policy)" style="rounded=1;whiteSpace=wrap;html=1;" vertex="1" parent="1">
          <mxGeometry x="640" y="40" width="120" height="80" as="geometry" />
        </mxCell>
        <mxCell id="T2doS31-qzHtL92whTEw-21" style="edgeStyle=orthogonalEdgeStyle;rounded=0;orthogonalLoop=1;jettySize=auto;html=1;exitX=1;exitY=0.5;exitDx=0;exitDy=0;entryX=0;entryY=0.5;entryDx=0;entryDy=0;" edge="1" parent="1" source="T2doS31-qzHtL92whTEw-17" target="T2doS31-qzHtL92whTEw-1">
          <mxGeometry relative="1" as="geometry" />
        </mxCell>
        <mxCell id="T2doS31-qzHtL92whTEw-17" value="Client" style="rounded=1;whiteSpace=wrap;html=1;" vertex="1" parent="1">
          <mxGeometry x="40" y="200" width="120" height="80" as="geometry" />
        </mxCell>
        <mxCell id="T2doS31-qzHtL92whTEw-22" style="edgeStyle=orthogonalEdgeStyle;rounded=0;orthogonalLoop=1;jettySize=auto;html=1;exitX=0;exitY=0.5;exitDx=0;exitDy=0;entryX=1;entryY=0.5;entryDx=0;entryDy=0;" edge="1" parent="1" source="T2doS31-qzHtL92whTEw-18" target="T2doS31-qzHtL92whTEw-1">
          <mxGeometry relative="1" as="geometry" />
        </mxCell>
        <mxCell id="T2doS31-qzHtL92whTEw-18" value="Server" style="rounded=1;whiteSpace=wrap;html=1;" vertex="1" parent="1">
          <mxGeometry x="440" y="200" width="120" height="80" as="geometry" />
        </mxCell>
        <mxCell id="T2doS31-qzHtL92whTEw-23" value="429 too many requests" style="text;html=1;align=center;verticalAlign=middle;whiteSpace=wrap;rounded=0;" vertex="1" parent="1">
          <mxGeometry x="120" y="280" width="160" height="40" as="geometry" />
        </mxCell>
      </root>
    </mxGraphModel>
  </diagram>
</mxfile>
